<?xml version="1.0" encoding="UTF-8" standalone="no"?><!DOCTYPE svg PUBLIC "-//W3C//DTD SVG 1.1//EN" "http://www.w3.org/Graphics/SVG/1.1/DTD/svg11.dtd"><svg width="281px" height="65px" version="1.1" xmlns="http://www.w3.org/2000/svg" xmlns:xlink="http://www.w3.org/1999/xlink" xml:space="preserve" xmlns:serif="http://www.serif.com/" style="fill-rule:evenodd;clip-rule:evenodd;stroke-linejoin:round;stroke-miterlimit:2;"><g transform="matrix(1,0,0,1,-0.000248,0.008044)"><g><path d="M76,13C86,13 95,18 95,31C95,32 95,33 95,34C95,35 95,35 95,35L68,35C69,39 72,42 77,42C80,42 82,40 83,38C83,38 84,38 84,38L94,40C94,40 94,41 94,41C92,46 87,51 77,51C63,51 56,43 56,32C56,21 64,13 76,13ZM84,28C84,24 81,21 77,21C71,21 69,24 68,28L84,28Z" style="fill:white;fill-rule:nonzero;"/><path d="M99,50L99,14C99,14 99,14 99,14L110,14C110,14 110,14 110,14L110,18C113,14 116,13 121,13C128,13 134,17 134,28L134,50C134,50 134,50 134,50L123,50C123,50 123,50 123,50L123,30C123,25 120,22 117,22C113,22 110,25 110,31L110,50C110,50 110,50 110,50L99,50C99,50 99,50 99,50Z" style="fill:white;fill-rule:nonzero;"/><path d="M135,14L146,14C146,14 146,14 147,14L155,42L163,14C163,14 163,14 164,14L175,14C175,14 175,14 175,14L162,50C162,50 162,50 162,50L148,50C148,50 147,50 147,50L134,14C134,14 135,14 135,14Z" style="fill:white;fill-rule:nonzero;"/><path d="M200,50L200,44C198,48 194,51 188,51C180,51 175,47 175,40C175,34 179,29 189,29L195,29C198,29 199,26 199,25C198,22 196,21 193,21C189,21 186,23 186,26C186,26 186,27 185,27L176,25C175,25 175,25 175,24C177,16 185,13 193,13C201,13 210,15 210,30L210,50C210,50 210,50 210,50L200,50C200,50 200,50 200,50L200,50ZM191,43C195,43 199,40 199,35L192,35C188,35 186,37 186,40C186,42 188,43 191,43L191,43Z" style="fill:white;fill-rule:nonzero;"/><path d="M212,22L212,14C212,14 212,14 213,14L217,14C219,14 220,12 220,10L220,4C220,4 220,3 221,3L230,3C230,3 230,4 230,4L230,14L238,14C238,14 238,14 238,14L238,22C238,23 238,23 238,23L230,23L230,36C230,40 234,42 238,41C238,41 238,41 238,41L238,50C238,50 238,50 238,50C237,51 236,51 234,51C225,51 219,48 219,35L219,23L213,23C212,23 212,23 212,22Z" style="fill:white;fill-rule:nonzero;"/><path d="M280,32C280,43 273,51 260,51C248,51 240,43 240,32C240,21 248,13 260,13C273,13 280,21 280,32ZM269,32C269,27 266,22 260,22C255,22 252,27 252,32C252,37 255,42 260,42C266,42 269,37 269,32Z" style="fill:white;fill-rule:nonzero;"/><g><circle cx="26" cy="61" r="3" style="fill:rgb(135,230,75);"/><path d="M42,42L26,43C26,43 25,43 26,43L41,31C42,30 43,28 43,27C43,25 41,23 39,24L21,26C21,26 21,26 21,26L38,13C42,10 42,5 39,2C36,-1 31,-1 29,2L1,30C0,31 -0,33 0,34C1,37 3,38 6,38L20,35C21,35 21,35 21,35L4,46C2,47 1,50 2,52C3,55 6,57 9,56L33,50C33,50 34,50 33,50L30,55C29,56 30,58 32,57L44,47C46,45 45,41 42,42L42,42Z" style="fill:rgb(135,230,75);fill-rule:nonzero;"/></g></g></g></svg>